<mxfile host="app.diagrams.net" modified="2021-06-14T07:16:24.397Z" agent="5.0 (Windows NT 10.0; Win64; x64) AppleWebKit/537.36 (KHTML, like Gecko) Chrome/91.0.4472.77 Safari/537.36" etag="obFvyD1v9IcSA_Z4IcFg" version="14.7.7" type="github" pages="2">
  <diagram id="iQTK4EhRlB9EQZiiD5Wg" name="添加发票流程">
    <mxGraphModel dx="1550" dy="810" grid="1" gridSize="10" guides="1" tooltips="1" connect="1" arrows="1" fold="1" page="1" pageScale="1" pageWidth="827" pageHeight="1169" math="0" shadow="0">
      <root>
        <mxCell id="0" />
        <mxCell id="1" parent="0" />
        <mxCell id="r2AVTB78wPAAhf53P1f3-76" value="" style="endArrow=none;dashed=1;html=1;fontSize=14;verticalAlign=bottom;entryX=0.5;entryY=1;entryDx=0;entryDy=0;" parent="1" target="r2AVTB78wPAAhf53P1f3-3" edge="1">
          <mxGeometry width="50" height="50" relative="1" as="geometry">
            <mxPoint x="694" y="960" as="sourcePoint" />
            <mxPoint x="693.66" y="170" as="targetPoint" />
          </mxGeometry>
        </mxCell>
        <mxCell id="r2AVTB78wPAAhf53P1f3-75" value="" style="endArrow=none;dashed=1;html=1;fontSize=14;verticalAlign=bottom;" parent="1" target="r2AVTB78wPAAhf53P1f3-2" edge="1">
          <mxGeometry width="50" height="50" relative="1" as="geometry">
            <mxPoint x="428" y="960" as="sourcePoint" />
            <mxPoint x="427.66" y="150" as="targetPoint" />
          </mxGeometry>
        </mxCell>
        <mxCell id="r2AVTB78wPAAhf53P1f3-20" value="" style="endArrow=none;dashed=1;html=1;fontSize=14;entryX=0.5;entryY=1;entryDx=0;entryDy=0;verticalAlign=bottom;startArrow=none;" parent="1" source="r2AVTB78wPAAhf53P1f3-27" target="r2AVTB78wPAAhf53P1f3-1" edge="1">
          <mxGeometry width="50" height="50" relative="1" as="geometry">
            <mxPoint x="154" y="820" as="sourcePoint" />
            <mxPoint x="244" y="550" as="targetPoint" />
          </mxGeometry>
        </mxCell>
        <mxCell id="r2AVTB78wPAAhf53P1f3-1" value="客户端" style="rounded=0;whiteSpace=wrap;html=1;fontSize=14;" parent="1" vertex="1">
          <mxGeometry x="94" y="90" width="120" height="60" as="geometry" />
        </mxCell>
        <mxCell id="r2AVTB78wPAAhf53P1f3-2" value="后端" style="rounded=0;whiteSpace=wrap;html=1;fontSize=14;" parent="1" vertex="1">
          <mxGeometry x="368" y="90" width="120" height="60" as="geometry" />
        </mxCell>
        <mxCell id="r2AVTB78wPAAhf53P1f3-3" value="PAAS" style="rounded=0;whiteSpace=wrap;html=1;fontSize=14;" parent="1" vertex="1">
          <mxGeometry x="634" y="90" width="120" height="60" as="geometry" />
        </mxCell>
        <mxCell id="r2AVTB78wPAAhf53P1f3-5" value="选择发票文件" style="text;html=1;strokeColor=none;fillColor=none;align=center;verticalAlign=middle;whiteSpace=wrap;rounded=0;fontSize=14;" parent="1" vertex="1">
          <mxGeometry x="44" y="180" width="90" height="20" as="geometry" />
        </mxCell>
        <mxCell id="r2AVTB78wPAAhf53P1f3-7" value="PDF文件分页" style="text;html=1;strokeColor=none;fillColor=none;align=center;verticalAlign=middle;whiteSpace=wrap;rounded=0;fontSize=14;" parent="1" vertex="1">
          <mxGeometry x="44" y="230" width="90" height="20" as="geometry" />
        </mxCell>
        <mxCell id="r2AVTB78wPAAhf53P1f3-9" value="显示发票文件列表" style="text;html=1;strokeColor=none;fillColor=none;align=center;verticalAlign=middle;whiteSpace=wrap;rounded=0;fontSize=14;" parent="1" vertex="1">
          <mxGeometry x="14" y="280" width="120" height="20" as="geometry" />
        </mxCell>
        <mxCell id="r2AVTB78wPAAhf53P1f3-15" style="edgeStyle=orthogonalEdgeStyle;rounded=0;orthogonalLoop=1;jettySize=auto;html=1;entryX=0;entryY=0.5;entryDx=0;entryDy=0;fontSize=14;" parent="1" source="r2AVTB78wPAAhf53P1f3-10" target="r2AVTB78wPAAhf53P1f3-14" edge="1">
          <mxGeometry relative="1" as="geometry" />
        </mxCell>
        <mxCell id="r2AVTB78wPAAhf53P1f3-11" value="点击识别" style="text;html=1;strokeColor=none;fillColor=none;align=right;verticalAlign=middle;whiteSpace=wrap;rounded=0;fontSize=14;" parent="1" vertex="1">
          <mxGeometry x="54" y="330" width="80" height="20" as="geometry" />
        </mxCell>
        <mxCell id="r2AVTB78wPAAhf53P1f3-18" style="edgeStyle=orthogonalEdgeStyle;rounded=0;orthogonalLoop=1;jettySize=auto;html=1;exitX=1;exitY=0.5;exitDx=0;exitDy=0;fontSize=14;" parent="1" source="r2AVTB78wPAAhf53P1f3-14" target="r2AVTB78wPAAhf53P1f3-17" edge="1">
          <mxGeometry relative="1" as="geometry" />
        </mxCell>
        <mxCell id="r2AVTB78wPAAhf53P1f3-14" value="" style="rounded=0;whiteSpace=wrap;html=1;fontSize=14;" parent="1" vertex="1">
          <mxGeometry x="423" y="320" width="10" height="40" as="geometry" />
        </mxCell>
        <mxCell id="r2AVTB78wPAAhf53P1f3-16" value="上传发票图片&amp;nbsp; /api/rec/invoice" style="text;html=1;strokeColor=none;fillColor=none;align=center;verticalAlign=middle;whiteSpace=wrap;rounded=0;fontSize=12;" parent="1" vertex="1">
          <mxGeometry x="184" y="320" width="220" height="20" as="geometry" />
        </mxCell>
        <mxCell id="r2AVTB78wPAAhf53P1f3-17" value="" style="rounded=0;whiteSpace=wrap;html=1;fontSize=14;" parent="1" vertex="1">
          <mxGeometry x="689" y="320" width="10" height="40" as="geometry" />
        </mxCell>
        <mxCell id="r2AVTB78wPAAhf53P1f3-19" value="调用OCR接口" style="text;html=1;strokeColor=none;fillColor=none;align=center;verticalAlign=middle;whiteSpace=wrap;rounded=0;fontSize=12;" parent="1" vertex="1">
          <mxGeometry x="454" y="320" width="220" height="20" as="geometry" />
        </mxCell>
        <mxCell id="r2AVTB78wPAAhf53P1f3-4" value="" style="rounded=0;whiteSpace=wrap;html=1;fontSize=14;" parent="1" vertex="1">
          <mxGeometry x="149" y="170" width="10" height="40" as="geometry" />
        </mxCell>
        <mxCell id="r2AVTB78wPAAhf53P1f3-6" value="" style="rounded=0;whiteSpace=wrap;html=1;fontSize=14;" parent="1" vertex="1">
          <mxGeometry x="149" y="220" width="10" height="40" as="geometry" />
        </mxCell>
        <mxCell id="r2AVTB78wPAAhf53P1f3-8" value="" style="rounded=0;whiteSpace=wrap;html=1;fontSize=14;" parent="1" vertex="1">
          <mxGeometry x="149" y="270" width="10" height="40" as="geometry" />
        </mxCell>
        <mxCell id="r2AVTB78wPAAhf53P1f3-10" value="" style="rounded=0;whiteSpace=wrap;html=1;fontSize=14;" parent="1" vertex="1">
          <mxGeometry x="149" y="320" width="10" height="40" as="geometry" />
        </mxCell>
        <mxCell id="r2AVTB78wPAAhf53P1f3-25" style="edgeStyle=orthogonalEdgeStyle;rounded=0;orthogonalLoop=1;jettySize=auto;html=1;entryX=1;entryY=0.5;entryDx=0;entryDy=0;fontSize=14;verticalAlign=bottom;" parent="1" source="r2AVTB78wPAAhf53P1f3-21" target="r2AVTB78wPAAhf53P1f3-24" edge="1">
          <mxGeometry relative="1" as="geometry" />
        </mxCell>
        <mxCell id="r2AVTB78wPAAhf53P1f3-21" value="" style="rounded=0;whiteSpace=wrap;html=1;fontSize=14;" parent="1" vertex="1">
          <mxGeometry x="689" y="370" width="10" height="40" as="geometry" />
        </mxCell>
        <mxCell id="r2AVTB78wPAAhf53P1f3-22" value="OCR接口" style="text;html=1;strokeColor=none;fillColor=none;align=left;verticalAlign=middle;whiteSpace=wrap;rounded=0;fontSize=14;" parent="1" vertex="1">
          <mxGeometry x="714" y="330" width="100" height="20" as="geometry" />
        </mxCell>
        <mxCell id="r2AVTB78wPAAhf53P1f3-29" style="edgeStyle=orthogonalEdgeStyle;rounded=0;orthogonalLoop=1;jettySize=auto;html=1;entryX=1;entryY=0.5;entryDx=0;entryDy=0;fontSize=14;verticalAlign=bottom;" parent="1" source="r2AVTB78wPAAhf53P1f3-24" target="r2AVTB78wPAAhf53P1f3-27" edge="1">
          <mxGeometry relative="1" as="geometry" />
        </mxCell>
        <mxCell id="r2AVTB78wPAAhf53P1f3-24" value="" style="rounded=0;whiteSpace=wrap;html=1;fontSize=14;" parent="1" vertex="1">
          <mxGeometry x="423" y="370" width="10" height="40" as="geometry" />
        </mxCell>
        <mxCell id="r2AVTB78wPAAhf53P1f3-26" value="返回识别结果" style="text;html=1;strokeColor=none;fillColor=none;align=center;verticalAlign=middle;whiteSpace=wrap;rounded=0;fontSize=12;" parent="1" vertex="1">
          <mxGeometry x="514" y="370" width="100" height="20" as="geometry" />
        </mxCell>
        <mxCell id="r2AVTB78wPAAhf53P1f3-27" value="" style="rounded=0;whiteSpace=wrap;html=1;fontSize=14;" parent="1" vertex="1">
          <mxGeometry x="149" y="370" width="10" height="40" as="geometry" />
        </mxCell>
        <mxCell id="r2AVTB78wPAAhf53P1f3-28" value="" style="endArrow=none;dashed=1;html=1;fontSize=14;entryX=0.5;entryY=1;entryDx=0;entryDy=0;verticalAlign=bottom;" parent="1" target="r2AVTB78wPAAhf53P1f3-27" edge="1">
          <mxGeometry width="50" height="50" relative="1" as="geometry">
            <mxPoint x="154" y="960" as="sourcePoint" />
            <mxPoint x="154" y="150" as="targetPoint" />
          </mxGeometry>
        </mxCell>
        <mxCell id="r2AVTB78wPAAhf53P1f3-30" value="返回代码、号码、不含税金额、开票日期、验证码和发票类型" style="text;html=1;strokeColor=none;fillColor=none;align=center;verticalAlign=middle;whiteSpace=wrap;rounded=0;fontSize=10;" parent="1" vertex="1">
          <mxGeometry x="184" y="360" width="220" height="30" as="geometry" />
        </mxCell>
        <mxCell id="r2AVTB78wPAAhf53P1f3-31" value="更新发票文件列表" style="text;html=1;strokeColor=none;fillColor=none;align=center;verticalAlign=middle;whiteSpace=wrap;rounded=0;fontSize=14;" parent="1" vertex="1">
          <mxGeometry x="14" y="380" width="120" height="20" as="geometry" />
        </mxCell>
        <mxCell id="r2AVTB78wPAAhf53P1f3-35" style="edgeStyle=orthogonalEdgeStyle;rounded=0;orthogonalLoop=1;jettySize=auto;html=1;entryX=0;entryY=0.5;entryDx=0;entryDy=0;fontSize=10;verticalAlign=bottom;" parent="1" source="r2AVTB78wPAAhf53P1f3-32" target="r2AVTB78wPAAhf53P1f3-34" edge="1">
          <mxGeometry relative="1" as="geometry" />
        </mxCell>
        <mxCell id="r2AVTB78wPAAhf53P1f3-32" value="" style="rounded=0;whiteSpace=wrap;html=1;fontSize=14;" parent="1" vertex="1">
          <mxGeometry x="149" y="420" width="10" height="40" as="geometry" />
        </mxCell>
        <mxCell id="r2AVTB78wPAAhf53P1f3-33" value="修改发票内容" style="text;html=1;strokeColor=none;fillColor=none;align=right;verticalAlign=middle;whiteSpace=wrap;rounded=0;fontSize=14;" parent="1" vertex="1">
          <mxGeometry x="14" y="430" width="120" height="20" as="geometry" />
        </mxCell>
        <mxCell id="r2AVTB78wPAAhf53P1f3-38" style="edgeStyle=orthogonalEdgeStyle;rounded=0;orthogonalLoop=1;jettySize=auto;html=1;exitX=1;exitY=0.5;exitDx=0;exitDy=0;entryX=0;entryY=0.5;entryDx=0;entryDy=0;fontSize=12;verticalAlign=bottom;" parent="1" source="r2AVTB78wPAAhf53P1f3-34" target="r2AVTB78wPAAhf53P1f3-37" edge="1">
          <mxGeometry relative="1" as="geometry" />
        </mxCell>
        <mxCell id="r2AVTB78wPAAhf53P1f3-34" value="" style="rounded=0;whiteSpace=wrap;html=1;fontSize=14;" parent="1" vertex="1">
          <mxGeometry x="423" y="420" width="10" height="40" as="geometry" />
        </mxCell>
        <mxCell id="r2AVTB78wPAAhf53P1f3-36" value="提交发票验真" style="text;html=1;strokeColor=none;fillColor=none;align=center;verticalAlign=middle;whiteSpace=wrap;rounded=0;fontSize=10;" parent="1" vertex="1">
          <mxGeometry x="184" y="420" width="220" height="20" as="geometry" />
        </mxCell>
        <mxCell id="r2AVTB78wPAAhf53P1f3-37" value="" style="rounded=0;whiteSpace=wrap;html=1;fontSize=14;" parent="1" vertex="1">
          <mxGeometry x="689" y="420" width="10" height="40" as="geometry" />
        </mxCell>
        <mxCell id="r2AVTB78wPAAhf53P1f3-39" value="验真接口" style="text;html=1;strokeColor=none;fillColor=none;align=left;verticalAlign=middle;whiteSpace=wrap;rounded=0;fontSize=14;" parent="1" vertex="1">
          <mxGeometry x="714" y="430" width="100" height="20" as="geometry" />
        </mxCell>
        <mxCell id="r2AVTB78wPAAhf53P1f3-40" value="提交发票验真结果" style="text;html=1;strokeColor=none;fillColor=none;align=center;verticalAlign=middle;whiteSpace=wrap;rounded=0;fontSize=10;" parent="1" vertex="1">
          <mxGeometry x="454" y="420" width="220" height="20" as="geometry" />
        </mxCell>
        <mxCell id="r2AVTB78wPAAhf53P1f3-44" style="edgeStyle=orthogonalEdgeStyle;rounded=0;orthogonalLoop=1;jettySize=auto;html=1;entryX=1;entryY=0.5;entryDx=0;entryDy=0;fontSize=12;verticalAlign=bottom;" parent="1" source="r2AVTB78wPAAhf53P1f3-41" target="r2AVTB78wPAAhf53P1f3-42" edge="1">
          <mxGeometry relative="1" as="geometry" />
        </mxCell>
        <mxCell id="r2AVTB78wPAAhf53P1f3-41" value="" style="rounded=0;whiteSpace=wrap;html=1;fontSize=14;" parent="1" vertex="1">
          <mxGeometry x="689" y="470" width="10" height="40" as="geometry" />
        </mxCell>
        <mxCell id="r2AVTB78wPAAhf53P1f3-47" value="成功" style="edgeStyle=orthogonalEdgeStyle;rounded=0;orthogonalLoop=1;jettySize=auto;html=1;fontSize=12;verticalAlign=bottom;entryX=0.5;entryY=0;entryDx=0;entryDy=0;" parent="1" source="r2AVTB78wPAAhf53P1f3-42" target="r2AVTB78wPAAhf53P1f3-46" edge="1">
          <mxGeometry relative="1" as="geometry">
            <mxPoint x="428" y="570" as="targetPoint" />
          </mxGeometry>
        </mxCell>
        <mxCell id="r2AVTB78wPAAhf53P1f3-57" value="失败" style="edgeStyle=orthogonalEdgeStyle;rounded=0;orthogonalLoop=1;jettySize=auto;html=1;entryX=0;entryY=0.5;entryDx=0;entryDy=0;fontSize=12;verticalAlign=bottom;" parent="1" source="r2AVTB78wPAAhf53P1f3-42" target="r2AVTB78wPAAhf53P1f3-56" edge="1">
          <mxGeometry relative="1" as="geometry">
            <Array as="points">
              <mxPoint x="394" y="490" />
              <mxPoint x="394" y="700" />
            </Array>
          </mxGeometry>
        </mxCell>
        <mxCell id="r2AVTB78wPAAhf53P1f3-42" value="" style="rounded=0;whiteSpace=wrap;html=1;fontSize=14;" parent="1" vertex="1">
          <mxGeometry x="423" y="470" width="10" height="40" as="geometry" />
        </mxCell>
        <mxCell id="r2AVTB78wPAAhf53P1f3-43" value="" style="rounded=0;whiteSpace=wrap;html=1;fontSize=14;" parent="1" vertex="1">
          <mxGeometry x="149" y="751" width="10" height="40" as="geometry" />
        </mxCell>
        <mxCell id="r2AVTB78wPAAhf53P1f3-45" value="返回验真结果" style="text;html=1;strokeColor=none;fillColor=none;align=center;verticalAlign=middle;whiteSpace=wrap;rounded=0;fontSize=10;" parent="1" vertex="1">
          <mxGeometry x="454" y="470" width="220" height="20" as="geometry" />
        </mxCell>
        <mxCell id="r2AVTB78wPAAhf53P1f3-50" style="edgeStyle=orthogonalEdgeStyle;rounded=0;orthogonalLoop=1;jettySize=auto;html=1;fontSize=12;verticalAlign=bottom;" parent="1" source="r2AVTB78wPAAhf53P1f3-46" target="r2AVTB78wPAAhf53P1f3-49" edge="1">
          <mxGeometry relative="1" as="geometry" />
        </mxCell>
        <mxCell id="r2AVTB78wPAAhf53P1f3-46" value="" style="rounded=0;whiteSpace=wrap;html=1;fontSize=14;" parent="1" vertex="1">
          <mxGeometry x="423" y="565" width="10" height="40" as="geometry" />
        </mxCell>
        <mxCell id="r2AVTB78wPAAhf53P1f3-49" value="" style="rounded=0;whiteSpace=wrap;html=1;fontSize=14;" parent="1" vertex="1">
          <mxGeometry x="689" y="565" width="10" height="40" as="geometry" />
        </mxCell>
        <mxCell id="r2AVTB78wPAAhf53P1f3-51" value="查询发票信息" style="text;html=1;strokeColor=none;fillColor=none;align=center;verticalAlign=middle;whiteSpace=wrap;rounded=0;fontSize=10;" parent="1" vertex="1">
          <mxGeometry x="454" y="565" width="220" height="20" as="geometry" />
        </mxCell>
        <mxCell id="r2AVTB78wPAAhf53P1f3-54" style="edgeStyle=orthogonalEdgeStyle;rounded=0;orthogonalLoop=1;jettySize=auto;html=1;entryX=1;entryY=0.5;entryDx=0;entryDy=0;fontSize=12;verticalAlign=bottom;" parent="1" source="r2AVTB78wPAAhf53P1f3-52" target="r2AVTB78wPAAhf53P1f3-53" edge="1">
          <mxGeometry relative="1" as="geometry" />
        </mxCell>
        <mxCell id="r2AVTB78wPAAhf53P1f3-52" value="" style="rounded=0;whiteSpace=wrap;html=1;fontSize=14;" parent="1" vertex="1">
          <mxGeometry x="689" y="617" width="10" height="40" as="geometry" />
        </mxCell>
        <mxCell id="r2AVTB78wPAAhf53P1f3-59" style="edgeStyle=orthogonalEdgeStyle;rounded=0;orthogonalLoop=1;jettySize=auto;html=1;entryX=1;entryY=0.5;entryDx=0;entryDy=0;fontSize=12;verticalAlign=bottom;" parent="1" source="r2AVTB78wPAAhf53P1f3-53" target="r2AVTB78wPAAhf53P1f3-58" edge="1">
          <mxGeometry relative="1" as="geometry">
            <Array as="points">
              <mxPoint x="474" y="637" />
              <mxPoint x="474" y="771" />
            </Array>
          </mxGeometry>
        </mxCell>
        <mxCell id="r2AVTB78wPAAhf53P1f3-53" value="" style="rounded=0;whiteSpace=wrap;html=1;fontSize=14;" parent="1" vertex="1">
          <mxGeometry x="423" y="617" width="10" height="40" as="geometry" />
        </mxCell>
        <mxCell id="r2AVTB78wPAAhf53P1f3-55" value="返回发票信息" style="text;html=1;strokeColor=none;fillColor=none;align=center;verticalAlign=middle;whiteSpace=wrap;rounded=0;fontSize=10;" parent="1" vertex="1">
          <mxGeometry x="454" y="617" width="220" height="20" as="geometry" />
        </mxCell>
        <mxCell id="r2AVTB78wPAAhf53P1f3-60" style="edgeStyle=orthogonalEdgeStyle;rounded=0;orthogonalLoop=1;jettySize=auto;html=1;entryX=0.5;entryY=0;entryDx=0;entryDy=0;fontSize=12;verticalAlign=bottom;" parent="1" source="r2AVTB78wPAAhf53P1f3-56" target="r2AVTB78wPAAhf53P1f3-58" edge="1">
          <mxGeometry relative="1" as="geometry" />
        </mxCell>
        <mxCell id="r2AVTB78wPAAhf53P1f3-56" value="" style="rounded=0;whiteSpace=wrap;html=1;fontSize=14;" parent="1" vertex="1">
          <mxGeometry x="423" y="680" width="10" height="40" as="geometry" />
        </mxCell>
        <mxCell id="r2AVTB78wPAAhf53P1f3-61" style="edgeStyle=orthogonalEdgeStyle;rounded=0;orthogonalLoop=1;jettySize=auto;html=1;entryX=1;entryY=0.5;entryDx=0;entryDy=0;fontSize=12;verticalAlign=bottom;" parent="1" source="r2AVTB78wPAAhf53P1f3-58" target="r2AVTB78wPAAhf53P1f3-43" edge="1">
          <mxGeometry relative="1" as="geometry" />
        </mxCell>
        <mxCell id="r2AVTB78wPAAhf53P1f3-58" value="" style="rounded=0;whiteSpace=wrap;html=1;fontSize=14;" parent="1" vertex="1">
          <mxGeometry x="423" y="751" width="10" height="40" as="geometry" />
        </mxCell>
        <mxCell id="r2AVTB78wPAAhf53P1f3-62" value="返回验真结果" style="text;html=1;strokeColor=none;fillColor=none;align=center;verticalAlign=middle;whiteSpace=wrap;rounded=0;fontSize=10;" parent="1" vertex="1">
          <mxGeometry x="184" y="751" width="220" height="20" as="geometry" />
        </mxCell>
        <mxCell id="r2AVTB78wPAAhf53P1f3-63" value="显示发票验真信息" style="text;html=1;strokeColor=none;fillColor=none;align=right;verticalAlign=middle;whiteSpace=wrap;rounded=0;fontSize=14;" parent="1" vertex="1">
          <mxGeometry x="14" y="761" width="120" height="20" as="geometry" />
        </mxCell>
        <mxCell id="r2AVTB78wPAAhf53P1f3-67" style="edgeStyle=orthogonalEdgeStyle;rounded=0;orthogonalLoop=1;jettySize=auto;html=1;entryX=0;entryY=0.5;entryDx=0;entryDy=0;fontSize=12;verticalAlign=bottom;" parent="1" source="r2AVTB78wPAAhf53P1f3-64" target="r2AVTB78wPAAhf53P1f3-66" edge="1">
          <mxGeometry relative="1" as="geometry" />
        </mxCell>
        <mxCell id="r2AVTB78wPAAhf53P1f3-64" value="" style="rounded=0;whiteSpace=wrap;html=1;fontSize=14;" parent="1" vertex="1">
          <mxGeometry x="149" y="810" width="10" height="40" as="geometry" />
        </mxCell>
        <mxCell id="r2AVTB78wPAAhf53P1f3-65" value="点击发票入库" style="text;html=1;strokeColor=none;fillColor=none;align=right;verticalAlign=middle;whiteSpace=wrap;rounded=0;fontSize=14;" parent="1" vertex="1">
          <mxGeometry x="14" y="820" width="120" height="20" as="geometry" />
        </mxCell>
        <mxCell id="r2AVTB78wPAAhf53P1f3-66" value="" style="rounded=0;whiteSpace=wrap;html=1;fontSize=14;" parent="1" vertex="1">
          <mxGeometry x="423" y="810" width="10" height="40" as="geometry" />
        </mxCell>
        <mxCell id="r2AVTB78wPAAhf53P1f3-68" value="提交发票信息" style="text;html=1;strokeColor=none;fillColor=none;align=center;verticalAlign=middle;whiteSpace=wrap;rounded=0;fontSize=10;" parent="1" vertex="1">
          <mxGeometry x="184" y="810" width="220" height="20" as="geometry" />
        </mxCell>
        <mxCell id="r2AVTB78wPAAhf53P1f3-72" style="edgeStyle=orthogonalEdgeStyle;rounded=0;orthogonalLoop=1;jettySize=auto;html=1;entryX=1;entryY=0.5;entryDx=0;entryDy=0;fontSize=12;verticalAlign=bottom;" parent="1" source="r2AVTB78wPAAhf53P1f3-69" target="r2AVTB78wPAAhf53P1f3-71" edge="1">
          <mxGeometry relative="1" as="geometry" />
        </mxCell>
        <mxCell id="r2AVTB78wPAAhf53P1f3-69" value="" style="rounded=0;whiteSpace=wrap;html=1;fontSize=14;" parent="1" vertex="1">
          <mxGeometry x="423" y="860" width="10" height="40" as="geometry" />
        </mxCell>
        <mxCell id="r2AVTB78wPAAhf53P1f3-70" value="保存发票信息" style="text;html=1;strokeColor=none;fillColor=none;align=left;verticalAlign=middle;whiteSpace=wrap;rounded=0;fontSize=10;" parent="1" vertex="1">
          <mxGeometry x="440" y="870" width="220" height="20" as="geometry" />
        </mxCell>
        <mxCell id="r2AVTB78wPAAhf53P1f3-71" value="" style="rounded=0;whiteSpace=wrap;html=1;fontSize=14;" parent="1" vertex="1">
          <mxGeometry x="149" y="860" width="10" height="40" as="geometry" />
        </mxCell>
        <mxCell id="r2AVTB78wPAAhf53P1f3-73" value="返回保存结果" style="text;html=1;strokeColor=none;fillColor=none;align=center;verticalAlign=middle;whiteSpace=wrap;rounded=0;fontSize=10;" parent="1" vertex="1">
          <mxGeometry x="184" y="860" width="220" height="20" as="geometry" />
        </mxCell>
        <mxCell id="r2AVTB78wPAAhf53P1f3-74" value="入库完成" style="text;html=1;strokeColor=none;fillColor=none;align=right;verticalAlign=middle;whiteSpace=wrap;rounded=0;fontSize=14;" parent="1" vertex="1">
          <mxGeometry x="14" y="870" width="120" height="20" as="geometry" />
        </mxCell>
      </root>
    </mxGraphModel>
  </diagram>
  <diagram id="Y2hhlPvm4x46tZ72rTAx" name="发票验真流程">
    <mxGraphModel dx="1069" dy="559" grid="1" gridSize="10" guides="1" tooltips="1" connect="1" arrows="1" fold="1" page="1" pageScale="1" pageWidth="827" pageHeight="1169" math="0" shadow="0">
      <root>
        <mxCell id="G_-pOnZ-BH4-s6KvIw1w-0" />
        <mxCell id="G_-pOnZ-BH4-s6KvIw1w-1" parent="G_-pOnZ-BH4-s6KvIw1w-0" />
      </root>
    </mxGraphModel>
  </diagram>
</mxfile>
